<svg xmlns="http://www.w3.org/2000/svg" viewBox="0 0 54 54"><g fill="#ffa501"><path d="M53 27c0 14.359-11.641 26-26 26S1 41.359 1 27 12.641 1 27 1s26 11.641 26 26z"/><path d="M27 54C12.112 54 0 41.888 0 27S12.112 0 27 0s27 12.112 27 27-12.112 27-27 27zm0-52C13.215 2 2 13.215 2 27s11.215 25 25 25 25-11.215 25-25S40.785 2 27 2z"/></g><path d="M39 32.706a.997.997 0 01-.707-.293L27 21.12 15.707 32.413a.999.999 0 11-1.414-1.414l11.498-11.498a1.713 1.713 0 012.418 0l11.498 11.498A.999.999 0 0139 32.706z" fill="#fff"/></svg>